#!OML:ASF H:\Male1\Project 1\Capture day 1\Session 1\Male1.ASF
:FULLY-SPECIFIED
:DEGREES
682
root 3.91595 15.5269 0.0461356 162.616 -74.7033 -162.788
lowerback 9.89844 1.65732 2.69172
upperback 4.58032 2.24522 0.4514
thorax -0.697875 1.06907 -1.27282
lowerneck -5.28253 -5.15521 1.48521
upperneck -2.37643 -7.01653 2.85778
head 0.187659 -3.53622 0.506239
rclavicle 2.98177e-015 1.47101e-014
rhumerus -29.2616 17.827 -91.8129
rradius 34.2968
rwrist -19.6431
rhand -16.4825 -0.473637
rfingers 7.12502
rthumb 9.73468 -30.2287
lclavicle 2.98177e-015 1.47101e-014
lhumerus -31.0116 12.8935 79.0364
lradius 41.7762
lwrist 1.79425
lhand -18.7562 9.6247
lfingers 7.12502
lthumb 7.54051 39.4703
rfemur -0.128952 15.4283 28.778
rtibia 12.6398
rfoot -28.3301 -31.4029
rtoes 1.96524
lfemur -14.5715 -15.318 -15.4001
ltibia 33.6614
lfoot -20.2293 14.8136
ltoes -18.7946
683
root 3.86044 15.5245 0.0688857 162.162 -74.0169 -162.446
lowerback 9.72457 1.49501 2.6567
upperback 4.53277 2.02701 0.576286
thorax -0.667276 0.95941 -1.09854
lowerneck -5.37764 -5.14829 1.55467
upperneck -1.97296 -7.01888 2.79712
head 0.322236 -3.52845 0.467317
rclavicle -7.78242e-014 2.66371e-014
rhumerus -29.2557 18.3067 -91.9482
rradius 34.6445
rwrist -19.8295
rhand -16.3047 -0.802913
rfingers 7.12502
rthumb 9.90619 -30.5498
lclavicle -7.78242e-014 2.66371e-014
lhumerus -31.0416 12.7672 78.8415
lradius 40.6403
lwrist 1.5277
lhand -18.8884 9.89978
lfingers 7.12502
lthumb 7.41291 39.7499
rfemur 0.258729 15.177 28.991
rtibia 12.5063
rfoot -27.6615 -30.9353
rtoes 0.76993
lfemur -14.0184 -16.8001 -15.0933
ltibia 32.419
lfoot -17.4996 14.5812
ltoes -11.832
684
root 3.8145 15.4917 0.0869839 162.534 -73.2595 -162.933
lowerback 9.46612 1.40244 2.20879
upperback 4.52068 1.86278 0.697731
thorax -0.565139 0.872051 -0.699856
lowerneck -5.47491 -5.14192 1.67393
upperneck -1.63457 -7.02402 2.67334
head 0.433415 -3.52435 0.402538
rclavicle 1.56046e-014 5.1684e-015
rhumerus -29.1985 18.6927 -92.0454
rradius 34.9989
rwrist -19.9935
rhand -16.2214 -1.08064
rfingers 7.12502
rthumb 9.9866 -30.8237
lclavicle 1.56046e-014 5.1684e-015
lhumerus -31.033 12.4485 78.7852
lradius 39.3914
lwrist 1.57793
lhand -19.3871 9.95382
lfingers 7.12502
lthumb 6.93152 39.8203
rfemur 0.486715 15.5044 29.0734
rtibia 12.5924
rfoot -27.2374 -30.7454
rtoes -0.272823
lfemur -12.723 -16.3196 -15.4238
ltibia 31.6044
lfoot -17.268 15.9552
ltoes -15.8134
685
root 3.76729 15.4987 0.108404 162.72 -72.5806 -163.193
lowerback 9.12272 1.3242 1.8682
upperback 4.54972 1.72414 0.792437
thorax -0.365196 0.799427 -0.389716
lowerneck -5.47831 -5.24083 1.63863
upperneck -1.47135 -7.15845 2.81779
head 0.492305 -3.58692 0.445908
rclavicle 1.65985e-014 -1.19271e-015
rhumerus -29.0241 18.7861 -92.0816
rradius 35.2153
rwrist -20.1995
rhand -16.2967 -1.23819
rfingers 7.12502
rthumb 9.91393 -30.9848
lclavicle 1.65985e-014 -1.19271e-015
lhumerus -30.7929 11.8268 78.8886
lradius 37.8301
lwrist 1.73545
lhand -20.1543 9.9632
lfingers 7.12502
lthumb 6.19085 39.8527
rfemur 0.594895 15.9419 29.1724
rtibia 12.8666
rfoot -26.5994 -30.8431
rtoes -2.37342
lfemur -11.8658 -16.8537 -15.3468
ltibia 31.1453
lfoot -20.434 15.7049
ltoes -1.81642
686
root 3.71965 15.4954 0.128501 163.216 -71.9857 -163.837
lowerback 9.04125 1.25807 1.50543
upperback 4.43756 1.61429 0.769671
thorax -0.449554 0.741257 -0.199715
lowerneck -5.41059 -5.40114 1.56795
upperneck -1.17437 -7.37503 3.10226
head 0.589242 -3.68639 0.535101
rclavicle 4.8901e-014 -6.75868e-015
rhumerus -29.1611 18.4219 -92.207
rradius 35.39
rwrist -20.138
rhand -16.7657 -0.938209
rfingers 7.12502
rthumb 9.46139 -30.7058
lclavicle 4.8901e-014 -6.75868e-015
lhumerus -30.5959 10.8666 78.9754
lradius 35.9131
lwrist 1.91069
lhand -20.964 10.0792
lfingers 7.12502
lthumb 5.40908 39.9902
rfemur 0.662961 16.2561 29.114
rtibia 13.2595
rfoot -25.685 -31.1102
rtoes -5.35685
lfemur -11.1767 -15.616 -15.9326
ltibia 30.9084
lfoot -17.8388 17.948
ltoes -16.067
